<?xml version="1.0" encoding="utf-8"?>
<!-- Svg Vector Icons : http://www.onlinewebfonts.com/icon -->
<!DOCTYPE svg PUBLIC "-//W3C//DTD SVG 1.1//EN" "http://www.w3.org/Graphics/SVG/1.1/DTD/svg11.dtd">
<svg version="1.1" xmlns="http://www.w3.org/2000/svg" xmlns:xlink="http://www.w3.org/1999/xlink" x="0px" y="0px" viewBox="0 0 256 256" enable-background="new 0 0 256 256" xml:space="preserve">
<metadata> Svg Vector Icons : http://www.onlinewebfonts.com/icon </metadata>
<g><g><g><path fill="#000000" d="M116.4,10.5c-6.1,0.6-17,2.8-23.3,4.8c-41.2,13.1-72.4,47.8-80.9,89.9c-7.6,38.1,3.9,76.6,31.3,104.8c19.2,19.8,41.1,30.9,69.8,35.4c5.1,0.8,24,0.8,29.4,0c27.9-4.2,50.6-15.6,69.6-35.1c18.4-18.9,29-40.5,33-67.4c0.8-5.4,0.8-24.3,0-29.4c-2.5-15.6-6.3-27.6-12.6-39.5c-5.5-10.4-11.9-19.1-20.5-28C187,19.9,152.4,7.1,116.4,10.5z M144.9,19.5c46.1,7.2,81.9,41.4,90.8,86.8c2.4,11.9,2.8,27,1,38.6c-6.8,43.6-38.2,78.5-80.7,89.4c-8.5,2.2-14.6,3-24.1,3.4C92.9,239,58,221.1,36.4,188.9c-8.5-12.7-14.4-28.3-17-44.5c-1.2-7.5-1.2-25.1,0-32.6c3.8-24.1,14.1-44.6,30.9-61.5C68.8,32,91.2,21.5,118.5,18.7C122.7,18.2,140.2,18.8,144.9,19.5z"/><path fill="#000000" d="M97.9,142l30.2,30.3l30.2-30.3l30.3-30.2h-60.5H67.6L97.9,142z"/></g></g></g>
</svg>